M48
;GenerationSoftware,Autodesk,EAGLE,9.6.2*%
;CreationDate,2021-11-12T04:30:14Z*%
FMAT,2
ICI,OFF
METRIC,TZ,000.000
T3C0.813
T2C0.914
T1C1.000
%
G90
M71
T1
X53924Y48911
X51433Y40228
X53529Y39894
X55688Y40613
X57392Y42247
X57943Y44416
X57526Y46378
X56170Y48116
X51685Y48694
X49850Y47551
X49857Y41658
T2
X13970Y39370
X13970Y41910
X13970Y44450
X24130Y60960
X26670Y60960
X29210Y60960
X13970Y36830
T3
X20320Y50800
X27940Y43180
X27940Y45720
X27940Y48260
X27940Y50800
X41910Y55880
X31750Y55880
X27940Y38100
X27940Y35560
X27940Y33020
X20320Y40640
X20320Y38100
X20320Y43180
X20320Y45720
X20320Y33020
X20320Y35560
X20320Y48260
X27940Y40640
M30