G04 EAGLE Gerber RS-274X export*
G75*
%MOMM*%
%FSLAX34Y34*%
%LPD*%
%INBottom Copper*%
%IPPOS*%
%AMOC8*
5,1,8,0,0,1.08239X$1,22.5*%
G01*
%ADD10C,1.422400*%
%ADD11C,1.320800*%
%ADD12P,1.429621X8X202.500000*%
%ADD13C,1.508000*%
%ADD14C,0.152400*%


D10*
X146812Y368300D02*
X132588Y368300D01*
X132588Y393700D02*
X146812Y393700D01*
X146812Y419100D02*
X132588Y419100D01*
X132588Y444500D02*
X146812Y444500D01*
X241300Y602488D02*
X241300Y616712D01*
X266700Y616712D02*
X266700Y602488D01*
X292100Y602488D02*
X292100Y616712D01*
D11*
X209804Y508000D02*
X196596Y508000D01*
X196596Y482600D02*
X209804Y482600D01*
X209804Y355600D02*
X196596Y355600D01*
X196596Y330200D02*
X209804Y330200D01*
X209804Y457200D02*
X196596Y457200D01*
X196596Y431800D02*
X209804Y431800D01*
X209804Y381000D02*
X196596Y381000D01*
X196596Y406400D02*
X209804Y406400D01*
X272796Y330200D02*
X286004Y330200D01*
X286004Y355600D02*
X272796Y355600D01*
X272796Y381000D02*
X286004Y381000D01*
X286004Y406400D02*
X272796Y406400D01*
X272796Y431800D02*
X286004Y431800D01*
X286004Y457200D02*
X272796Y457200D01*
X272796Y482600D02*
X286004Y482600D01*
X286004Y508000D02*
X272796Y508000D01*
D12*
X419100Y558800D03*
X317500Y558800D03*
D13*
X561702Y481157D03*
X575262Y463784D03*
X579434Y444158D03*
X573916Y422472D03*
X556876Y406126D03*
X535293Y398941D03*
X514331Y402276D03*
X498567Y416582D03*
X498504Y475513D03*
X516849Y486943D03*
X539238Y489106D03*
D14*
X196596Y431800D02*
X165862Y401066D01*
X165862Y387350D01*
X146812Y368300D01*
X139700Y368300D01*
X196596Y431800D02*
X203200Y431800D01*
X317500Y558800D02*
X292100Y584200D01*
X292100Y602488D02*
X292100Y609600D01*
X292100Y602488D02*
X292100Y584200D01*
X495792Y508000D02*
X516849Y486943D01*
X495792Y508000D02*
X286004Y508000D01*
X279400Y508000D01*
X507898Y520446D02*
X539238Y489106D01*
X507898Y520446D02*
X267641Y520446D01*
X209804Y482600D02*
X203200Y482600D01*
X209804Y482600D02*
X229795Y482600D01*
X267641Y520446D01*
X551430Y481157D02*
X561702Y481157D01*
X551430Y481157D02*
X545137Y474864D01*
X524385Y474864D01*
X516272Y473139D01*
X504403Y461271D01*
X351529Y461271D01*
X203200Y508000D02*
X196596Y508000D01*
X184150Y495554D01*
X184150Y477445D01*
X191441Y470154D01*
X292354Y470154D01*
X342646Y470154D01*
X351529Y461271D01*
X586467Y368300D02*
X606602Y388435D01*
X586467Y368300D02*
X292100Y368300D01*
X279400Y355600D01*
X606602Y388435D02*
X606602Y447498D01*
X590316Y463784D02*
X575262Y463784D01*
X590316Y463784D02*
X606602Y447498D01*
X587298Y436294D02*
X579434Y444158D01*
X587298Y436294D02*
X587298Y393700D01*
X574598Y381000D01*
X279400Y381000D01*
X559345Y437043D02*
X573916Y422472D01*
X559345Y437043D02*
X558715Y437043D01*
X545121Y450638D01*
X346299Y450638D01*
X339653Y457200D02*
X279400Y457200D01*
X339653Y457200D02*
X346257Y450596D01*
X346299Y450638D01*
X531202Y431800D02*
X556876Y406126D01*
X531202Y431800D02*
X286004Y431800D01*
X279400Y431800D01*
M02*
