G04 EAGLE Gerber RS-274X export*
G75*
%MOMM*%
%FSLAX34Y34*%
%LPD*%
%INSoldermask Bottom*%
%IPPOS*%
%AMOC8*
5,1,8,0,0,1.08239X$1,22.5*%
G01*
%ADD10C,1.625600*%
%ADD11C,1.524000*%
%ADD12P,1.649562X8X202.500000*%
%ADD13C,1.711200*%


D10*
X146812Y368300D02*
X132588Y368300D01*
X132588Y393700D02*
X146812Y393700D01*
X146812Y419100D02*
X132588Y419100D01*
X132588Y444500D02*
X146812Y444500D01*
X241300Y602488D02*
X241300Y616712D01*
X266700Y616712D02*
X266700Y602488D01*
X292100Y602488D02*
X292100Y616712D01*
D11*
X209804Y508000D02*
X196596Y508000D01*
X196596Y482600D02*
X209804Y482600D01*
X209804Y355600D02*
X196596Y355600D01*
X196596Y330200D02*
X209804Y330200D01*
X209804Y457200D02*
X196596Y457200D01*
X196596Y431800D02*
X209804Y431800D01*
X209804Y381000D02*
X196596Y381000D01*
X196596Y406400D02*
X209804Y406400D01*
X272796Y330200D02*
X286004Y330200D01*
X286004Y355600D02*
X272796Y355600D01*
X272796Y381000D02*
X286004Y381000D01*
X286004Y406400D02*
X272796Y406400D01*
X272796Y431800D02*
X286004Y431800D01*
X286004Y457200D02*
X272796Y457200D01*
X272796Y482600D02*
X286004Y482600D01*
X286004Y508000D02*
X272796Y508000D01*
D12*
X419100Y558800D03*
X317500Y558800D03*
D13*
X561702Y481157D03*
X575262Y463784D03*
X579434Y444158D03*
X573916Y422472D03*
X556876Y406126D03*
X535293Y398941D03*
X514331Y402276D03*
X498567Y416582D03*
X498504Y475513D03*
X516849Y486943D03*
X539238Y489106D03*
M02*
